<svg width="24" height="24" viewBox="0 0 24 24" fill="none" xmlns="http://www.w3.org/2000/svg">
<path fill-rule="evenodd" clip-rule="evenodd" d="M7.08623 8.58814H3.22814V20.1801H7.08623V8.58814ZM7.34034 5.00228C7.3153 3.86569 6.50252 3 5.18269 3C3.86286 3 3 3.86569 3 5.00228C3 6.11532 3.83736 7.00594 5.13261 7.00594H5.15726C6.50252 7.00594 7.34034 6.11532 7.34034 5.00228ZM21 13.5336C21 9.97308 19.0967 8.31594 16.5579 8.31594C14.5095 8.31594 13.5924 9.44106 13.0803 10.2304V8.58845H9.22177C9.27262 9.67618 9.22177 20.1804 9.22177 20.1804H13.0803V13.7065C13.0803 13.3601 13.1054 13.0145 13.2074 12.7664C13.4862 12.0743 14.1211 11.3577 15.187 11.3577C16.5836 11.3577 17.1419 12.4207 17.1419 13.9784V20.1801H20.9998L21 13.5336Z" fill="black"/>
</svg>
