<svg width="24" height="24" viewBox="0 0 24 24" fill="none" xmlns="http://www.w3.org/2000/svg">
<path fill-rule="evenodd" clip-rule="evenodd" d="M11.9996 10.4394C13.5329 10.4394 20.988 6.2471 20.988 6.2471L21 5.49806C21 4.67113 20.3289 4 19.4997 4H4.49956C3.67113 4 3 4.67113 3 5.49806V6.16545C3 6.16545 10.5368 10.4394 11.9996 10.4394ZM11.9996 12.4992C10.5368 12.4992 3.01124 8.49419 3.01198 8.49419L3 17.4826C3 18.3095 3.67188 18.9806 4.49956 18.9806H19.4997C20.3289 18.9806 21 18.3095 21 17.4826L20.988 8.49419C20.988 8.49419 13.6033 12.4992 11.9996 12.4992Z" fill="black"/>
</svg>
