<svg width="24" height="24" viewBox="0 0 24 24" fill="none" xmlns="http://www.w3.org/2000/svg">
<path fill-rule="evenodd" clip-rule="evenodd" d="M11.7111 8.39666L11.7545 9.11154L11.0319 9.024C8.40184 8.68845 6.10411 7.55048 4.15321 5.63929L3.19944 4.69098L2.95377 5.39127C2.43353 6.95232 2.76591 8.60091 3.84974 9.7097C4.42779 10.3225 4.29773 10.41 3.3006 10.0453C2.95377 9.92854 2.6503 9.841 2.6214 9.88477C2.52024 9.9869 2.86707 11.3145 3.14164 11.8397C3.51737 12.5692 4.28327 13.2841 5.12144 13.7072L5.82954 14.0427L4.99138 14.0573C4.18212 14.0573 4.15321 14.0719 4.23992 14.3783C4.52894 15.3266 5.67058 16.3332 6.94228 16.7709L7.83825 17.0773L7.05789 17.5442C5.9018 18.2153 4.54339 18.5946 3.18499 18.6238C2.53469 18.6384 2 18.6967 2 18.7405C2 18.8864 3.76303 19.7034 4.78906 20.0243C7.86715 20.9726 11.5233 20.5641 14.269 18.9447C16.2199 17.7922 18.1708 15.5017 19.0812 13.2841C19.5725 12.1023 20.0639 9.94313 20.0639 8.90729C20.0639 8.23618 20.1072 8.14865 20.9165 7.34623C21.3934 6.87938 21.8414 6.36875 21.9281 6.22286C22.0726 5.94566 22.0581 5.94566 21.3211 6.19368C20.0928 6.63136 19.9194 6.573 20.5263 5.91648C20.9743 5.44963 21.509 4.60345 21.509 4.35543C21.509 4.31166 21.2922 4.38461 21.0466 4.51591C20.7864 4.6618 20.2084 4.88064 19.7749 5.01195L18.9945 5.25996L18.2864 4.77852C17.8962 4.51591 17.3471 4.22412 17.058 4.13659C16.321 3.93234 15.1939 3.96152 14.5291 4.19495C12.7227 4.85146 11.5811 6.54382 11.7111 8.39666Z" fill="black"/>
</svg>
