<svg width="24" height="24" viewBox="0 0 24 24" fill="none" xmlns="http://www.w3.org/2000/svg">
<path fill-rule="evenodd" clip-rule="evenodd" d="M12.9808 17.1532C12.9808 17.1532 13.3418 17.1138 13.5267 16.9189C13.6959 16.7403 13.69 16.4033 13.69 16.4033C13.69 16.4033 13.6675 14.8295 14.4119 14.5971C15.1456 14.3686 16.0876 16.1191 17.0873 16.7922C17.8425 17.3011 18.4157 17.1897 18.4157 17.1897L21.0872 17.1532C21.0872 17.1532 22.4841 17.0687 21.8218 15.9904C21.767 15.902 21.4354 15.1925 19.8361 13.7349C18.1604 12.2091 18.3854 12.4559 20.4024 9.81631C21.6311 8.20894 22.1221 7.22762 21.9685 6.80801C21.8228 6.40665 20.9189 6.51323 20.9189 6.51323L17.9119 6.53147C17.9119 6.53147 17.6889 6.50171 17.5236 6.59869C17.3622 6.69375 17.2575 6.91555 17.2575 6.91555C17.2575 6.91555 16.7821 8.15901 16.1473 9.21715C14.8081 11.4486 14.273 11.5668 14.0539 11.4285C13.5443 11.1049 13.6714 10.1303 13.6714 9.43799C13.6714 7.27467 14.006 6.37304 13.0209 6.13971C12.6942 6.06193 12.4536 6.01104 11.6172 6.0024C10.5441 5.99184 9.63636 6.00624 9.12183 6.25301C8.77946 6.41721 8.51534 6.784 8.67675 6.80513C8.87532 6.83105 9.32529 6.92419 9.56397 7.24298C9.87211 7.6549 9.86135 8.57861 9.86135 8.57861C9.86135 8.57861 10.0384 11.1251 9.44757 11.441C9.04259 11.658 8.48698 11.2153 7.29259 9.19026C6.68122 8.15325 6.21951 7.00677 6.21951 7.00677C6.21951 7.00677 6.13049 6.79265 5.97104 6.67742C5.77834 6.53819 5.50933 6.49498 5.50933 6.49498L2.65201 6.51323C2.65201 6.51323 2.22258 6.52475 2.06509 6.70815C1.92521 6.87042 2.05433 7.20745 2.05433 7.20745C2.05433 7.20745 4.29147 12.3455 6.82501 14.9351C9.14824 17.3087 11.7855 17.1532 11.7855 17.1532H12.9808Z" fill="black"/>
</svg>
