<svg width="24" height="25" viewBox="0 0 24 25" fill="none" xmlns="http://www.w3.org/2000/svg">
<path fill-rule="evenodd" clip-rule="evenodd" d="M12 21.6333C16.9706 21.6333 21 17.6039 21 12.6333C21 7.66274 16.9706 3.6333 12 3.6333C7.02944 3.6333 3 7.66274 3 12.6333C3 17.6039 7.02944 21.6333 12 21.6333ZM12 20.2487C7.79414 20.2487 4.38462 16.8392 4.38462 12.6333C4.38462 8.42744 7.79414 5.01792 12 5.01792C16.2059 5.01792 19.6154 8.42744 19.6154 12.6333C19.6154 16.8392 16.2059 20.2487 12 20.2487ZM12 8.06473C12.3824 8.06473 12.6923 8.37469 12.6923 8.75704V13.2696L14.9407 15.518C15.2111 15.7884 15.2111 16.2267 14.9407 16.4971C14.6703 16.7674 14.232 16.7674 13.9616 16.4971L11.5105 14.0459C11.3806 13.9161 11.3077 13.74 11.3077 13.5564V8.75704C11.3077 8.37469 11.6176 8.06473 12 8.06473Z" fill="black"/>
</svg>
