<svg width="24" height="24" viewBox="0 0 24 24" fill="none" xmlns="http://www.w3.org/2000/svg">
<path fill-rule="evenodd" clip-rule="evenodd" d="M3 6.50001C3 6.00295 3.40119 5.60001 3.89878 5.60001H20.1012C20.5976 5.60001 21 5.99948 21 6.50001C21 6.99706 20.5988 7.40001 20.1012 7.40001H3.89878C3.4024 7.40001 3 7.00053 3 6.50001Z" fill="black"/>
<path fill-rule="evenodd" clip-rule="evenodd" d="M3 12.7C3 12.2029 3.40119 11.8 3.89878 11.8H20.1012C20.5976 11.8 21 12.1995 21 12.7C21 13.1971 20.5988 13.6 20.1012 13.6H3.89878C3.4024 13.6 3 13.2005 3 12.7Z" fill="black"/>
<path fill-rule="evenodd" clip-rule="evenodd" d="M3 18.9C3 18.4029 3.40119 18 3.89878 18H20.1012C20.5976 18 21 18.3995 21 18.9C21 19.3971 20.5988 19.8 20.1012 19.8H3.89878C3.4024 19.8 3 19.4005 3 18.9Z" fill="black"/>
</svg>
