<svg width="24" height="24" viewBox="0 0 24 24" fill="none" xmlns="http://www.w3.org/2000/svg">
<path fill-rule="evenodd" clip-rule="evenodd" d="M8.81333 6.28345C9.19126 6.66137 9.19126 7.27411 8.81333 7.65204L5.30408 11.1613H21.0323C21.5667 11.1613 22 11.5946 22 12.129C22 12.6635 21.5667 13.0968 21.0323 13.0968H5.30408L8.81333 16.606C9.19126 16.984 9.19126 17.5967 8.81333 17.9746C8.4354 18.3525 7.82266 18.3525 7.44474 17.9746L2.28377 12.8137M2.07343 11.7586C2.12066 11.6445 2.19066 11.5375 2.28344 11.4447L7.44474 6.28345C7.82266 5.90552 8.4354 5.90552 8.81333 6.28345M2.07343 11.7586C2.02646 11.8719 2.00039 11.996 2 12.1261C2 12.1271 2 12.1281 2 12.129C2 12.13 2 12.131 2 12.1319C2.00074 12.3777 2.09453 12.6233 2.2814 12.8113" fill="black"/>
</svg>
