<svg width="24" height="24" viewBox="0 0 24 24" fill="none" xmlns="http://www.w3.org/2000/svg">
<path fill-rule="evenodd" clip-rule="evenodd" d="M9.85714 17.1431H20.1429C20.6162 17.1431 21 17.5268 21 18.0002C21 18.4736 20.6162 18.8574 20.1429 18.8574H9.85714C9.38376 18.8574 9 18.4736 9 18.0002C9 17.5268 9.38376 17.1431 9.85714 17.1431Z" fill="#3B3B3B"/>
<path fill-rule="evenodd" clip-rule="evenodd" d="M9.85714 13.7144H16.7143C17.1877 13.7144 17.5714 14.0981 17.5714 14.5715C17.5714 15.0449 17.1877 15.4286 16.7143 15.4286H9.85714C9.38376 15.4286 9 15.0449 9 14.5715C9 14.0981 9.38376 13.7144 9.85714 13.7144Z" fill="#3B3B3B"/>
<path fill-rule="evenodd" clip-rule="evenodd" d="M9.85714 10.2856H13.2857C13.7591 10.2856 14.1429 10.6694 14.1429 11.1428C14.1429 11.6162 13.7591 11.9999 13.2857 11.9999H9.85714C9.38376 11.9999 9 11.6162 9 11.1428C9 10.6694 9.38376 10.2856 9.85714 10.2856Z" fill="#3B3B3B"/>
<path fill-rule="evenodd" clip-rule="evenodd" d="M6.51295 4.28564C6.76057 4.28564 6.98366 4.39064 7.14013 4.55854C7.14756 4.56546 7.15489 4.57254 7.16212 4.57977L10.1926 7.61023C10.5273 7.94496 10.5273 8.48768 10.1926 8.82241C9.85784 9.15715 9.31513 9.15715 8.98039 8.82241L7.3701 7.21211V18.8571C7.3701 19.3305 6.98634 19.7142 6.51295 19.7142C6.03957 19.7142 5.65581 19.3305 5.65581 18.8571V7.20015L4.03355 8.82241C3.69881 9.15715 3.1561 9.15715 2.82136 8.82241C2.48663 8.48768 2.48663 7.94496 2.82136 7.61023L5.85182 4.57977C5.88548 4.54611 5.92124 4.51584 5.95867 4.48895C6.10812 4.36214 6.3016 4.28564 6.51295 4.28564Z" fill="#3B3B3B"/>
</svg>
