<svg width="24" height="24" viewBox="0 0 24 24" fill="none" xmlns="http://www.w3.org/2000/svg">
<path fill-rule="evenodd" clip-rule="evenodd" d="M9.85714 6.85693L20.1429 6.85693C20.6162 6.85693 21 6.47318 21 5.99979C21 5.5264 20.6162 5.14265 20.1429 5.14265L9.85714 5.14265C9.38376 5.14265 9 5.5264 9 5.99979C9 6.47318 9.38376 6.85693 9.85714 6.85693Z" fill="#464646"/>
<path fill-rule="evenodd" clip-rule="evenodd" d="M9.85714 10.2856L16.7143 10.2856C17.1877 10.2856 17.5714 9.90189 17.5714 9.4285C17.5714 8.95511 17.1877 8.57136 16.7143 8.57136L9.85714 8.57136C9.38376 8.57136 9 8.95511 9 9.4285C9 9.90189 9.38376 10.2856 9.85714 10.2856Z" fill="#464646"/>
<path fill-rule="evenodd" clip-rule="evenodd" d="M9.85714 13.7144L13.2857 13.7144C13.7591 13.7144 14.1429 13.3306 14.1429 12.8572C14.1429 12.3838 13.7591 12.0001 13.2857 12.0001L9.85714 12.0001C9.38376 12.0001 9 12.3838 9 12.8572C9 13.3306 9.38376 13.7144 9.85714 13.7144Z" fill="#464646"/>
<path fill-rule="evenodd" clip-rule="evenodd" d="M6.51491 19.7144C6.76252 19.7144 6.98561 19.6094 7.14209 19.4415C7.14951 19.4345 7.15684 19.4275 7.16407 19.4202L10.1945 16.3898C10.5293 16.055 10.5293 15.5123 10.1945 15.1776C9.85979 14.8429 9.31708 14.8429 8.98235 15.1776L7.37205 16.7879L7.37205 5.14292C7.37205 4.66954 6.98829 4.28578 6.51491 4.28578C6.04152 4.28578 5.65776 4.66954 5.65776 5.14292L5.65776 16.7999L4.0355 15.1776C3.70076 14.8429 3.15805 14.8429 2.82332 15.1776C2.48858 15.5123 2.48858 16.055 2.82332 16.3898L5.85378 19.4202C5.88743 19.4539 5.92319 19.4842 5.96063 19.511C6.11007 19.6379 6.30356 19.7144 6.51491 19.7144Z" fill="#464646"/>
</svg>
