<svg width="13" height="13" viewBox="0 0 13 13" fill="none" xmlns="http://www.w3.org/2000/svg">
<path d="M5.77778 5.77778H0.722222C0.32335 5.77778 0 6.10113 0 6.5C0 6.89887 0.32335 7.22222 0.722222 7.22222H5.77778V12.2778C5.77778 12.6767 6.10113 13 6.5 13C6.89887 13 7.22222 12.6767 7.22222 12.2778V7.22222H12.2778C12.6767 7.22222 13 6.89887 13 6.5C13 6.10113 12.6767 5.77778 12.2778 5.77778H7.22222V0.722222C7.22222 0.32335 6.89887 0 6.5 0C6.10113 0 5.77778 0.32335 5.77778 0.722222V5.77778Z" fill="#3B3B3B"/>
</svg>
