<svg width="13" height="16" viewBox="0 0 13 16" fill="none" xmlns="http://www.w3.org/2000/svg">
<path fill-rule="evenodd" clip-rule="evenodd" d="M5.625 1.75C5.28 1.75 5 2.03 5 2.375V3H7.5V2.375C7.5 2.03 7.22 1.75 6.875 1.75H5.625ZM8.75 3V2.375C8.75 1.33937 7.91063 0.5 6.875 0.5H5.625C4.58937 0.5 3.75 1.33937 3.75 2.375V3H0.625C0.28 3 0 3.28 0 3.625C0 3.97 0.28 4.25 0.625 4.25H0.690625L1.755 13.8319C1.86062 14.7819 2.66312 15.5 3.61875 15.5H8.88125C9.83687 15.5 10.6394 14.7819 10.7444 13.8319L11.8094 4.25H11.875C12.22 4.25 12.5 3.97 12.5 3.625C12.5 3.28 12.22 3 11.875 3H8.75ZM10.5519 4.25H1.94812L2.9975 13.6937C3.03312 14.0106 3.30062 14.25 3.61875 14.25H8.88125C9.19938 14.25 9.46688 14.0106 9.5025 13.6937L10.5519 4.25ZM5 6.125C5.345 6.125 5.625 6.405 5.625 6.75V11.75C5.625 12.095 5.345 12.375 5 12.375C4.655 12.375 4.375 12.095 4.375 11.75V6.75C4.375 6.405 4.655 6.125 5 6.125ZM7.5 6.125C7.845 6.125 8.125 6.405 8.125 6.75V11.75C8.125 12.095 7.845 12.375 7.5 12.375C7.155 12.375 6.875 12.095 6.875 11.75V6.75C6.875 6.405 7.155 6.125 7.5 6.125V6.125Z" fill="black"/>
</svg>
