<svg width="25" height="21" viewBox="0 0 25 21" fill="none" xmlns="http://www.w3.org/2000/svg">
<mask id="mask0_608_23706" style="mask-type:luminance" maskUnits="userSpaceOnUse" x="0" y="3" width="25" height="15">
<path fill-rule="evenodd" clip-rule="evenodd" d="M0 3.46244H25V17.5376H0V3.46244Z" fill="white"/>
</mask>
<g mask="url(#mask0_608_23706)">
<path fill-rule="evenodd" clip-rule="evenodd" d="M9.39355 5.10831L9.35114 8.40958H4.7922C4.7922 8.40958 5.08906 6.5709 6.61578 5.71424C8.1849 4.92026 9.39355 5.10831 9.39355 5.10831ZM4.96183 14.9286C4.96183 14.2391 5.49194 13.7376 6.21289 13.7376C6.80662 13.7376 7.35793 14.2391 7.35793 14.9286C7.35793 15.6181 6.80662 16.1613 6.21289 16.1613C5.49194 16.1613 4.96183 15.6181 4.96183 14.9286ZM18.1722 15.0748C18.1722 14.4062 18.6599 13.8421 19.3596 13.8421C20.0806 13.8421 20.6107 14.4062 20.6107 15.0748C20.6107 15.7225 20.0806 16.2867 19.3596 16.2867C18.6599 16.2867 18.1722 15.7225 18.1722 15.0748ZM24.6819 12.9436C24.7668 12.86 24.7668 12.7556 24.7668 12.6093C24.7668 12.275 24.5123 11.9407 24.2366 11.8362V4.43969C24.2366 3.95913 23.9398 4.00092 23.9398 4.00092H9.39355H8.60899C6.06446 4.00092 4.13486 5.98586 3.58355 8.36779H2.82019C1.69635 8.36779 0.699746 9.26624 0.699746 10.3945V12.4004V12.8182C0.233249 12.9018 0 13.2361 0 13.5913C0 14.0301 0.360475 14.4271 0.826972 14.4271H2.14165H2.48092H2.52332C2.56573 14.448 2.56573 14.448 2.65055 14.5107C2.82019 14.5525 2.92621 14.5107 3.05344 14.4271H3.22307C3.18066 14.6151 3.18066 14.8032 3.18066 14.9286C3.18066 16.6001 4.51654 17.9164 6.21289 17.9164C7.86684 17.9164 9.20271 16.6001 9.20271 14.9286C9.20271 14.8032 9.20271 14.6151 9.1391 14.448C9.22392 14.5734 9.35114 14.6151 9.45717 14.6151H9.6056C9.73282 14.5734 9.79644 14.5107 9.88126 14.4271H10.3902H15.6277C15.6277 14.5107 15.7337 14.5734 15.9033 14.6151C16.0729 14.6569 16.3062 14.5734 16.4546 14.448C16.391 14.6569 16.391 14.8241 16.391 15.0748C16.391 16.7046 17.7057 18 19.3596 18C21.056 18 22.4767 16.7046 22.4767 15.0748C22.4767 14.8659 22.3494 14.7405 22.3494 14.5734C22.4767 14.6569 22.6039 14.7405 22.6887 14.7405C22.8159 14.7405 22.8159 14.7405 22.8796 14.6987C22.9856 14.6569 23.0916 14.5525 23.1976 14.4271H24.173C24.6819 14.4271 25 14.0301 25 13.5913C25 13.3615 24.8728 13.0899 24.6819 12.9436Z" fill="#E9841B"/>
</g>
</svg>
