<svg width="16" height="16" viewBox="0 0 16 16" fill="none" xmlns="http://www.w3.org/2000/svg">
<path fill-rule="evenodd" clip-rule="evenodd" d="M8 16C3.58172 16 0 12.4183 0 8C0 3.58172 3.58172 0 8 0C12.4183 0 16 3.58172 16 8C16 12.4183 12.4183 16 8 16ZM11.5959 5.31022C11.3728 5.08707 11.011 5.08707 10.7878 5.31022L7.14286 8.95518C6.9197 9.17834 6.55789 9.17834 6.33473 8.95518L5.2612 7.88165C5.03805 7.6585 4.67624 7.6585 4.45308 7.88165C4.22992 8.10481 4.22992 8.46662 4.45308 8.68978L6.33473 10.5714C6.55789 10.7946 6.9197 10.7946 7.14286 10.5714L11.5959 6.11835C11.8191 5.89519 11.8191 5.53338 11.5959 5.31022Z" fill="#53AD50"/>
</svg>
