<svg width="24" height="24" viewBox="0 0 24 24" fill="none" xmlns="http://www.w3.org/2000/svg">
<path fill-rule="evenodd" clip-rule="evenodd" d="M7.60025 2.00762L7.30478 2.00003C5.6294 1.99455 4.01987 2.65903 2.84074 3.84479C0.386712 6.32204 0.386713 10.2931 2.83899 12.7686L12.2998 22.1287L21.7513 12.7779C24.2129 10.2931 24.2128 6.32204 21.7606 3.84655C20.5716 2.66654 18.9704 2.00855 17.3014 2.00855L17.0076 2.01535C15.4454 2.08774 13.9616 2.73549 12.85 3.8387L12.2988 4.37803L11.7521 3.84121C10.6521 2.73903 9.16673 2.08436 7.60025 2.00762ZM7.30238 3.30003C8.54393 3.30317 9.73649 3.76414 10.6507 4.58771L10.8422 4.7697L12.2998 6.19807L13.7657 4.76145C14.703 3.83123 15.975 3.30855 17.3014 3.30855C18.6277 3.30855 19.8997 3.83123 20.837 4.76145C22.7283 6.6706 22.7856 9.6948 21.0089 11.6715L20.837 11.8537L12.2998 20.3L3.76255 11.8537C1.81219 9.8849 1.81219 6.73026 3.76255 4.76145C4.69633 3.82242 5.97223 3.29568 7.30238 3.30003Z" fill="black"/>
</svg>
