<svg width="10" height="10" viewBox="0 0 10 10" fill="none" xmlns="http://www.w3.org/2000/svg">
<path d="M5.55556 5.55556L9.44444 5.55556C9.75127 5.55556 10 5.30682 10 5C10 4.69318 9.75127 4.44444 9.44444 4.44444L5.55556 4.44444V0.555555C5.55556 0.248731 5.30682 0 5 0C4.69318 0 4.44444 0.248731 4.44444 0.555555V4.44444H0.555555C0.248731 4.44444 0 4.69318 0 5C0 5.30682 0.248731 5.55556 0.555555 5.55556H4.44444L4.44444 9.44444C4.44444 9.75127 4.69318 10 5 10C5.30682 10 5.55556 9.75127 5.55556 9.44444L5.55556 5.55556Z" fill="black"/>
</svg>
