<svg width="24" height="24" viewBox="0 0 24 24" fill="none" xmlns="http://www.w3.org/2000/svg">
<path fill-rule="evenodd" clip-rule="evenodd" d="M17 13.3429L13.4786 15.1071C13.2576 15.2347 12.9853 15.2347 12.7643 15.1071C11.2551 14.0634 9.9481 12.754 8.90714 11.2429C8.77955 11.0219 8.77955 10.7496 8.90714 10.5286L10.6571 7L8.15714 2H2V2.71429C2 13.3655 10.6345 22 21.2857 22H22V15.8429L17 13.3429ZM20.5714 20.5714C11.2593 20.2058 3.79417 12.7407 3.42857 3.42857H7.27143L9.05714 7L7.62857 9.85714C7.28688 10.5442 7.33864 11.3615 7.76429 12C8.90065 13.6769 10.3366 15.1297 12 16.2857C12.6385 16.7114 13.4558 16.7631 14.1429 16.4214L17 14.9929L20.5714 16.7786V20.5714Z" fill="black"/>
</svg>
